<svg width="539" height="476" viewBox="0 0 539 476" fill="none" xmlns="http://www.w3.org/2000/svg">
<path d="M73.3031 321.339C104.549 321.339 129.879 268.027 129.879 202.264C129.879 136.5 104.549 83.1882 73.3031 83.1882C42.0574 83.1882 16.7277 136.5 16.7277 202.264C16.7277 268.027 42.0574 321.339 73.3031 321.339Z" fill="#F6EEDF"/>
<path d="M72.7837 203.499C75.6058 151.666 81.2919 116.655 81.349 116.307L80.1153 116.092C80.0582 116.439 74.362 151.507 71.5353 203.407C68.9268 251.307 68.2974 323.759 80.115 396.899L81.3493 396.687C69.5519 323.671 70.1797 251.329 72.7837 203.499Z" fill="#3F3D56"/>
<path d="M123.869 178.115L72.7154 206.357L73.306 207.495L124.459 179.254L123.869 178.115Z" fill="#3F3D56"/>
<path d="M19.3049 192.27L18.7146 193.408L69.8751 221.636L70.4654 220.498L19.3049 192.27Z" fill="#3F3D56"/>
<path d="M465.603 308.961C506.139 308.961 539 239.797 539 154.48C539 69.1632 506.139 0 465.603 0C425.067 0 392.206 69.1632 392.206 154.48C392.206 239.797 425.067 308.961 465.603 308.961Z" fill="#F6EEDF"/>
<path d="M464.711 156.063C468.373 88.8077 475.751 43.3795 475.826 42.9284L474.656 42.724C474.582 43.1755 467.194 88.6569 463.528 155.975C460.144 218.107 459.328 312.083 474.656 406.95L475.826 406.749C460.517 311.999 461.332 218.127 464.711 156.063Z" fill="#3F3D56"/>
<path d="M531.306 123.351L464.944 159.99L465.504 161.069L531.866 124.43L531.306 123.351Z" fill="#3F3D56"/>
<path d="M395.447 141.714L394.887 142.793L461.259 179.414L461.819 178.334L395.447 141.714Z" fill="#3F3D56"/>
<path d="M377.172 350.801C392.317 350.801 404.595 324.959 404.595 293.083C404.595 261.206 392.317 235.365 377.172 235.365C362.026 235.365 349.749 261.206 349.749 293.083C349.749 324.959 362.026 350.801 377.172 350.801Z" fill="#BA0D0D"/>
<path d="M377.148 295.569L377.31 295.882L402.105 282.193L401.545 281.114L377.199 294.555C378.546 268.977 381.302 251.806 381.357 251.468L380.188 251.264C380.127 251.633 376.853 272.023 375.691 301.528L351.136 287.971L350.577 289.05L375.372 302.74L375.668 302.169C374.738 326.521 375.259 356.971 380.188 387.475L381.358 387.274C375.984 354.016 375.866 320.82 377.148 295.569Z" fill="#3F3D56"/>
<path d="M516.122 419.623C370.056 371.927 237.607 374.467 152.218 384.998C59.7092 396.407 1.0077 419.38 0.425787 419.611L0 418.468C0.583649 418.237 59.4234 395.21 152.077 383.783C206.578 377.07 261.568 375.619 316.33 379.449C384.313 384.195 451.505 397.29 516.48 418.457L516.122 419.623Z" fill="#3F3D56"/>
<path d="M187.756 406.143C187.756 406.143 188.166 397.289 196.564 398.318Z" fill="#3F3D56"/>
<path d="M185.384 397.717C187.705 397.717 189.587 395.776 189.587 393.382C189.587 390.987 187.705 389.046 185.384 389.046C183.062 389.046 181.181 390.987 181.181 393.382C181.181 395.776 183.062 397.717 185.384 397.717Z" fill="#E4E4E4"/>
<path d="M185.886 400.683H184.7V409.249H185.886V400.683Z" fill="#3F3D56"/>
<path d="M340.803 407.979C340.803 407.979 341.213 399.125 349.611 400.154Z" fill="#3F3D56"/>
<path d="M338.431 399.553C340.752 399.553 342.634 397.612 342.634 395.218C342.634 392.823 340.752 390.882 338.431 390.882C336.109 390.882 334.228 392.823 334.228 395.218C334.228 397.612 336.109 399.553 338.431 399.553Z" fill="#E4E4E4"/>
<path d="M338.933 402.518H337.747V411.085H338.933V402.518Z" fill="#3F3D56"/>
<path d="M88.6912 392.681C88.6912 392.681 89.1008 383.827 97.4986 384.856Z" fill="#3F3D56"/>
<path d="M86.3183 384.256C88.6396 384.256 90.5213 382.314 90.5213 379.92C90.5213 377.526 88.6396 375.585 86.3183 375.585C83.9971 375.585 82.1153 377.526 82.1153 379.92C82.1153 382.314 83.9971 384.256 86.3183 384.256Z" fill="#E4E4E4"/>
<path d="M86.8208 387.221H85.6344V395.787H86.8208V387.221Z" fill="#3F3D56"/>
<path d="M153.351 381.055C153.351 381.055 153.76 372.201 162.158 373.23Z" fill="#3F3D56"/>
<path d="M150.978 372.629C153.299 372.629 155.181 370.688 155.181 368.294C155.181 365.899 153.299 363.958 150.978 363.958C148.656 363.958 146.775 365.899 146.775 368.294C146.775 370.688 148.656 372.629 150.978 372.629Z" fill="#E4E4E4"/>
<path d="M151.48 375.595H150.294V384.161H151.48V375.595Z" fill="#3F3D56"/>
<path d="M315.296 397.577C315.296 397.577 315.705 388.722 324.103 389.752Z" fill="#3F3D56"/>
<path d="M312.923 389.151C315.244 389.151 317.126 387.21 317.126 384.815C317.126 382.421 315.244 380.48 312.923 380.48C310.601 380.48 308.72 382.421 308.72 384.815C308.72 387.21 310.601 389.151 312.923 389.151Z" fill="#E4E4E4"/>
<path d="M313.425 392.116H312.239V400.683H313.425V392.116Z" fill="#3F3D56"/>
<path d="M497.707 379.827L522.123 417.17L499.391 440.618L496.444 434.539L501.496 422.381C501.496 422.381 500.654 411.091 497.707 408.051C494.761 405.012 481.711 386.775 481.711 386.775L497.707 379.827Z" fill="#FFB8B8"/>
<path d="M466.557 259.113C466.557 259.113 471.186 266.671 461.504 299.238C461.504 299.238 506.665 377.86 499.509 383.071C492.353 388.282 472.987 399.813 467.936 396.34C462.885 392.866 426.145 275.179 426.145 275.179L466.557 259.113Z" fill="#00263B"/>
<path d="M517.703 410.44L525.069 418.039C528.858 421.947 531.384 427.592 524.227 432.368C517.071 437.144 492.235 454.948 483.816 449.303C475.397 443.658 493.919 438.447 493.919 438.447C493.919 438.447 496.981 426.733 498.607 429.334C500.233 431.934 500.233 437.144 500.233 437.144L517.703 410.44Z" fill="#00263B"/>
<path d="M428.671 400.235C428.671 400.235 415.2 425.855 415.2 428.894C415.2 431.934 416.042 440.618 416.042 440.618L390.364 447.132L381.524 442.789L384.471 434.973C384.471 434.973 400.467 429.328 403.835 418.473C407.202 407.617 410.991 396.327 410.991 396.327L428.671 400.235Z" fill="#FFB8B8"/>
<path d="M444.246 145.347C454.011 145.347 461.926 137.181 461.926 127.109C461.926 117.037 454.011 108.872 444.246 108.872C434.482 108.872 426.566 117.037 426.566 127.109C426.566 137.181 434.482 145.347 444.246 145.347Z" fill="#FFB8B8"/>
<path d="M439.616 142.741L448.057 167.759L466.557 159.242C466.557 159.242 453.928 139.268 453.928 136.662L439.616 142.741Z" fill="#FFB8B8"/>
<path d="M437.09 231.757H459.401C459.401 231.757 475.397 256.942 466.136 283.43C464.718 287.486 463.31 293.168 461.905 299.885C458.673 315.334 455.456 336.26 452.158 355.49C447.527 382.5 442.738 406.163 437.532 406.593C427.008 407.461 406.544 407.316 406.544 402.974C406.544 398.632 420.252 273.008 420.252 273.008L423.199 267.798L423.755 245.101C423.843 241.519 425.289 238.115 427.782 235.621C430.275 233.126 433.617 231.739 437.09 231.757V231.757Z" fill="#00263B"/>
<path d="M414.99 428.677C414.99 428.677 419.831 437.144 418.568 443.224C417.305 449.303 415.2 448.434 405.939 449.303C396.678 450.171 365.107 450.171 365.107 444.092C365.107 438.013 389.735 430.118 389.839 432.546C389.943 434.973 390.785 439.75 388.259 440.618C385.734 441.487 388.049 440.835 388.049 440.835L414.99 428.677Z" fill="#00263B"/>
<path d="M439.619 285.955C439.619 285.955 437.788 316.8 425.575 307.618C413.361 298.435 430.334 281.848 430.334 281.848L439.619 285.955Z" fill="white"/>
<path d="M463.995 245.331C464.582 245.604 465.23 245.707 465.87 245.629C466.509 245.551 467.116 245.295 467.625 244.888C468.364 244.29 468.856 243.425 469.002 242.468C470.768 231.968 472.918 202.857 474.156 188.137C475.71 169.666 467.949 155.36 467.883 155.273L463.31 148.785C462.835 148.108 462.151 147.616 461.37 147.39C460.59 147.164 459.758 147.217 459.01 147.541C459.01 147.541 444.731 162.823 444.678 163.413C444.454 165.946 442.755 171.561 433.897 180.699C424.204 190.696 424.151 199.422 424.365 201.858C424.379 202.019 424.387 202.179 424.387 202.339C424.368 203.432 424.512 204.521 424.814 205.569C428.873 218.771 425.694 234.577 420.589 251.076C420.395 251.821 420.431 252.611 420.692 253.334C420.952 254.057 421.425 254.679 422.043 255.114C423.534 256.16 421.746 254.608 422.278 255.28C425.796 259.727 430.86 253.529 436.651 246.765C438.669 244.409 440.956 241.739 443.651 238.959C447.357 235.136 454.437 243.859 457.729 243.859C459.895 243.886 462.031 244.388 463.995 245.331V245.331Z" fill="#00A1AB"/>
<path d="M465.959 162.008C465.959 162.008 475.206 170.053 469.952 180.485C464.699 190.918 465.397 198.613 465.397 198.613C465.397 198.613 463.999 270.282 447.583 266.8L440.116 288.065L426.631 283.044L434.429 264.288C434.429 264.288 428.183 263.887 430.008 259.497C431.29 256.414 438.196 222.955 442.193 203.311C443.887 194.986 445.059 189.143 445.059 189.143C445.059 189.143 450.372 159.838 465.959 162.008Z" fill="#00A1AB"/>
<path opacity="0.2" d="M467.898 198.429L462.699 233.619L465.504 195.991L467.898 198.429Z" fill="black"/>
<path d="M424.957 119.029C424.957 119.029 421.984 95.1674 446.237 102.992C446.237 102.992 463.558 99.7137 469.238 122.063L474.99 145.49L472.187 143.917L470.88 146.863L466.338 148.05L464.394 144.07L463.454 148.903L426.25 152.729C426.25 152.729 442.913 142.564 443.177 124.346L440.003 127.805L424.957 119.029Z" fill="#00263B"/>
<path opacity="0.2" d="M452.624 356.862L460.92 299.841L454.173 361.397L452.624 356.862Z" fill="black"/>
<path d="M466.182 112.876C471.348 112.876 475.537 108.555 475.537 103.226C475.537 97.8963 471.348 93.5759 466.182 93.5759C461.015 93.5759 456.827 97.8963 456.827 103.226C456.827 108.555 461.015 112.876 466.182 112.876Z" fill="#00263B"/>
<path d="M456.542 100.863C456.696 98.415 457.749 96.1192 459.486 94.4435C461.223 92.7679 463.514 91.8383 465.893 91.8442C465.7 91.8189 465.508 91.7882 465.311 91.7751C464.085 91.6931 462.855 91.8612 461.692 92.2697C460.528 92.6782 459.454 93.3191 458.531 94.1559C457.608 94.9926 456.854 96.0088 456.311 97.1464C455.769 98.2839 455.449 99.5206 455.371 100.786C455.292 102.051 455.455 103.319 455.852 104.519C456.249 105.719 456.87 106.826 457.682 107.778C458.494 108.73 459.479 109.508 460.582 110.066C461.685 110.625 462.884 110.954 464.111 111.035C464.308 111.048 464.502 111.043 464.696 111.043C462.337 110.735 460.18 109.51 458.665 107.619C457.15 105.728 456.391 103.312 456.542 100.863V100.863Z" fill="#00263B"/>
<path opacity="0.2" d="M439.485 209.395L431.254 254.899L441.922 204.639L439.485 209.395Z" fill="black"/>
<path d="M439.998 140.252L435.201 143.983C430.261 141.418 426.555 135.484 425.208 129.821L430.436 127.1C430.847 132.877 434.822 136.717 439.998 140.252Z" fill="white"/>
<path d="M441.99 127.922H430.037C429.932 127.922 429.83 127.879 429.756 127.802C429.681 127.725 429.639 127.62 429.639 127.511C429.639 127.402 429.681 127.298 429.756 127.22C429.83 127.143 429.932 127.1 430.037 127.1H441.99C442.096 127.1 442.197 127.143 442.272 127.22C442.347 127.298 442.389 127.402 442.389 127.511C442.389 127.62 442.347 127.725 442.272 127.802C442.197 127.879 442.096 127.922 441.99 127.922V127.922Z" fill="white"/>
<path d="M439.6 140.252C439.535 140.252 439.471 140.235 439.413 140.204C439.356 140.173 439.306 140.127 439.27 140.071C439.233 140.016 439.211 139.952 439.204 139.885C439.197 139.818 439.206 139.751 439.23 139.688L442.418 131.469C442.437 131.418 442.466 131.372 442.502 131.334C442.539 131.295 442.582 131.264 442.63 131.243C442.678 131.221 442.73 131.21 442.783 131.209C442.835 131.208 442.887 131.218 442.936 131.238C442.984 131.259 443.029 131.288 443.066 131.326C443.104 131.364 443.133 131.409 443.154 131.459C443.175 131.508 443.185 131.562 443.186 131.616C443.186 131.67 443.177 131.723 443.157 131.774L439.969 139.993C439.94 140.07 439.889 140.135 439.823 140.181C439.757 140.227 439.679 140.252 439.6 140.252V140.252Z" fill="white"/>
<path d="M442.794 132.778C444.409 132.778 445.718 130.888 445.718 128.557C445.718 126.225 444.409 124.335 442.794 124.335C441.18 124.335 439.871 126.225 439.871 128.557C439.871 130.888 441.18 132.778 442.794 132.778Z" fill="#FFB8B8"/>
<path d="M236.802 141.274L267.937 148.624L281.092 123.031L254.47 112.309L236.802 141.274Z" fill="#00263B"/>
<path d="M253.344 279.045C253.344 279.045 243.336 302.703 243.336 309.586C243.336 309.586 247.298 328.298 246.047 333.46L241.668 343.138L232.494 339.267L229.992 313.457L230.409 272.162L253.344 279.045Z" fill="#FFB9B9"/>
<path d="M258.974 137.523C258.974 137.523 259.808 151.718 258.14 156.02C256.472 160.321 264.395 168.494 264.395 168.494L276.906 151.718C276.906 151.718 268.565 143.115 270.65 133.652L258.974 137.523Z" fill="#FFB9B9"/>
<path d="M232.911 235.814C232.911 235.814 220.817 259.042 232.494 257.322C244.17 255.601 240.208 235.169 240.208 235.169" fill="#E6E6E6"/>
<path d="M240.208 235.169L244.17 194.519L243.962 169.785L234.787 171.505V194.303L232.911 235.814" fill="#FFB9B9"/>
<path d="M230.2 336.256L248.132 328.943L250.217 365.506C250.217 365.506 253.97 376.691 252.719 380.992C252.719 380.992 253.553 388.305 251.468 388.735C249.383 389.165 243.545 390.025 243.128 389.595C242.711 389.165 242.711 387.875 242.711 387.875C242.711 387.875 238.54 390.886 238.123 394.327C238.123 394.327 220.609 399.919 220.192 394.757C219.775 389.595 228.949 385.294 228.949 385.294L236.038 374.11L230.2 336.256Z" fill="#00263B"/>
<path d="M290.667 279.045C290.667 279.045 280.659 302.703 280.659 309.586C280.659 309.586 284.62 328.298 283.369 333.46L278.991 343.138L269.816 339.267L267.314 313.457L267.731 272.162L290.667 279.045Z" fill="#FFB9B9"/>
<path d="M268.148 336.256L286.08 328.943L288.165 365.506C288.165 365.506 291.918 376.691 290.667 380.992C290.667 380.992 291.501 388.305 289.416 388.735C287.331 389.165 281.493 390.025 281.076 389.595C280.659 389.165 280.659 387.875 280.659 387.875C280.659 387.875 276.488 390.886 276.071 394.327C276.071 394.327 258.557 399.919 258.14 394.757C257.723 389.595 266.897 385.294 266.897 385.294L273.986 374.11L268.148 336.256Z" fill="#00263B"/>
<path d="M276.491 127.631C276.49 131.019 275.278 134.287 273.087 136.81C270.895 139.334 267.879 140.935 264.615 141.308C261.351 141.68 258.068 140.799 255.395 138.831C252.722 136.864 250.846 133.948 250.126 130.643C249.906 129.655 249.797 128.645 249.799 127.631C249.801 123.982 251.209 120.483 253.711 117.903C256.214 115.323 259.607 113.874 263.145 113.874C266.683 113.874 270.077 115.323 272.579 117.903C275.082 120.483 276.489 123.982 276.491 127.631V127.631Z" fill="#FFB9B9"/>
<path d="M264.812 155.159L275.168 149.612L279.825 153.439C279.825 153.439 291.084 153.009 295.254 158.171C299.424 163.332 301.718 176.452 301.718 176.452C301.718 176.452 287.956 173.441 289.624 185.486L287.122 178.603L284.829 184.41L256.889 194.304L244.379 172.366C244.379 172.366 236.038 169.785 233.119 175.807C233.119 175.807 233.745 154.084 241.876 153.439C247.345 153.005 251.468 153.009 251.468 153.009L256.055 152.148L258.992 151.073L264.812 155.159Z" fill="#00A1AB"/>
<path d="M282.535 202.262C282.535 202.262 304.428 270.012 298.173 279.475C298.173 279.475 274.82 291.519 228.115 275.173L247.089 199.251C258.744 196.792 270.559 197.796 282.535 202.262Z" fill="#00263B"/>
<path d="M282.535 202.262L288.697 180.42C281.306 172.129 287.685 153.743 287.685 153.743L278.767 151.771C278.767 151.771 269.816 176.667 260.642 173.656C251.468 170.645 256.472 151.288 256.472 151.288L248.132 152.148L244.379 167.204L247.089 199.251C258.394 198.25 270.25 199.414 282.535 202.262Z" fill="#00A1AB"/>
<path d="M293.377 235.169L296.297 194.303L297.131 169.785L287.957 171.505V194.303L286.08 235.814" fill="#FFB9B9"/>
<path d="M286.08 235.814C286.08 235.814 273.986 259.042 285.663 257.322C297.339 255.601 293.378 235.169 293.378 235.169" fill="white"/>
<path d="M301.718 176.452C301.718 176.452 300.235 154.361 287.841 154.438V179.985C287.841 179.985 297.131 174.301 301.718 176.452Z" fill="#00A1AB"/>
<path d="M267.412 131.184C267.342 131.184 267.273 131.161 267.215 131.119C267.158 131.077 267.114 131.018 267.091 130.949C267.068 130.88 267.066 130.806 267.085 130.736C267.105 130.666 267.145 130.604 267.2 130.558L274.006 124.942C274.04 124.913 274.081 124.891 274.124 124.878C274.167 124.865 274.212 124.861 274.256 124.866C274.301 124.871 274.344 124.885 274.384 124.907C274.423 124.929 274.458 124.959 274.486 124.996C274.514 125.032 274.535 125.073 274.547 125.118C274.56 125.162 274.563 125.209 274.558 125.255C274.553 125.301 274.539 125.345 274.517 125.386C274.495 125.426 274.466 125.462 274.431 125.491L267.625 131.107C267.565 131.157 267.49 131.184 267.412 131.184Z" fill="white"/>
<path d="M267.927 139.608C267.778 139.798 267.628 139.987 267.472 140.163C265.666 141.007 263.7 141.426 261.718 141.389C259.736 141.352 257.786 140.859 256.011 139.948C254.237 139.036 252.681 137.728 251.458 136.118C250.234 134.509 249.374 132.639 248.939 130.643L255.388 129.419L267.927 130.643C265.055 134.252 265.403 135.501 267.927 139.608Z" fill="white"/>
<path d="M255.61 108.363C255.61 108.363 248.713 109.701 247.118 118.574C246.868 120.071 246.823 121.596 246.983 123.105C247.142 124.813 246.911 128.42 243.315 132.668C240.97 135.423 238.784 138.319 236.769 141.34V141.34L243.976 143.319L247.196 131.002C248.757 125.031 251.162 119.329 254.334 114.08L254.4 113.971C254.4 113.971 256.794 120.568 263.209 121.472L261.231 118.786C261.231 118.786 268.731 123.258 272.98 124.624C273.465 124.78 273.899 125.07 274.237 125.462C274.574 125.853 274.801 126.333 274.894 126.848C274.986 127.363 274.941 127.895 274.763 128.385C274.584 128.876 274.279 129.307 273.881 129.632C273.851 129.656 273.82 129.681 273.789 129.705C270.664 132.154 264.288 137.997 266.807 143.649C269.325 149.301 266.388 150.331 266.388 150.331L271.805 148.205L274.284 147.11L274.033 149.001L286.136 149.263C286.136 149.263 289.406 149.242 283.597 140.237C283.597 140.237 282.195 136.861 283.346 134.281C284.27 132.328 284.73 130.176 284.688 128.003C284.322 118.924 280.614 100.454 255.61 108.363Z" fill="#00263B"/>
<path d="M85.8344 366.967C85.8344 366.967 85.8344 425.38 72.8377 440.702C72.8377 440.702 70.0527 448.363 69.1243 451.236C68.6052 452.871 67.9851 454.47 67.2676 456.024V459.854C67.2676 459.854 42.2026 456.981 39.4176 450.278L44.0592 444.532C44.0592 444.532 44.9876 443.575 44.0592 440.702C43.1309 437.829 45.9159 437.829 45.9159 437.829L52.4143 422.508L51.4859 359.306L56.1276 272.165L96.0461 270.249L85.8344 366.967Z" fill="#00263B"/>
<path d="M65.411 454.108C65.411 454.108 71.9093 474.218 65.411 475.176C58.9126 476.133 2.28412 477.091 3.21246 469.43C4.1408 461.769 22.7075 462.727 22.7075 462.727L42.2026 450.278L65.411 454.108Z" fill="#00263B"/>
<path d="M122.968 272.165C122.968 272.165 124.824 284.613 117.398 298.02C109.971 311.426 114.613 356.433 114.613 356.433L180.525 415.804C180.525 415.804 167.528 438.787 162.886 437.829C158.245 436.872 84.906 375.585 84.906 375.585L56.1276 275.995L122.968 272.165Z" fill="#00263B"/>
<path d="M179.619 413.267C179.619 413.267 199.564 418.371 196.869 424.545C194.174 430.72 164.643 480.57 158.867 475.66C153.091 470.75 163.815 455.087 163.815 455.087L164.058 431.437L179.619 413.267Z" fill="#00263B"/>
<path d="M108.114 94.0528C108.122 99.0976 106.441 103.99 103.355 107.904C100.915 111.024 97.694 113.395 94.0413 114.762C90.3885 116.128 86.4429 116.438 82.6317 115.658C80.7233 115.277 78.8764 114.622 77.1452 113.71C74.3956 112.281 71.9786 110.254 70.06 107.77C68.1414 105.286 66.7667 102.403 66.0302 99.3191C65.6154 97.5964 65.407 95.8278 65.4098 94.0528C65.4098 88.2113 67.6595 82.6091 71.6638 78.4785C75.6681 74.348 81.0991 72.0274 86.7621 72.0274C92.4251 72.0274 97.8561 74.348 101.86 78.4785C105.865 82.6091 108.114 88.2113 108.114 94.0528V94.0528Z" fill="#A0616A"/>
<path d="M103.563 101.822L102.618 130.164L84.6523 137.486C84.6523 137.486 82.8905 108.466 80.4034 106.857C77.9164 105.249 103.563 101.822 103.563 101.822Z" fill="#A0616A"/>
<path d="M80.2644 140.973C80.2644 140.973 105.329 115.118 111.828 116.076C118.326 117.034 118.326 119.906 118.326 121.822C118.326 123.737 116.469 124.694 118.326 125.652C120.183 126.61 122.039 125.652 122.039 128.525C122.039 131.397 138.75 160.125 133.18 191.726C127.61 223.327 121.111 238.649 123.896 255.885C126.681 273.122 124.824 276.953 124.824 276.953C124.824 276.953 55.1993 282.698 54.2709 275.995C53.3426 269.292 57.0559 273.122 52.4143 268.334C47.7726 263.546 49.6293 263.546 49.6293 260.673C49.6293 257.801 70.0527 140.973 80.2644 140.973Z" fill="#00A1AB"/>
<path d="M93.2611 271.207C93.2611 271.207 82.121 298.977 73.766 292.274C65.411 285.571 77.4793 262.589 77.4793 262.589L93.2611 271.207Z" fill="white"/>
<path d="M120.183 142.889C120.183 142.889 141.994 145.465 133.873 186.79C125.753 228.115 94.1894 275.995 94.1894 275.995L72.8377 265.461L100.688 208.963L94.1894 173.532C94.1894 173.532 90.4761 140.016 120.183 142.889Z" fill="#00A1AB"/>
<path opacity="0.2" d="M101.152 209.442L70.5167 262.11L73.3018 264.983L101.152 209.442Z" fill="black"/>
<path opacity="0.2" d="M117.367 233.985L92.7969 275.516H101.152L117.367 233.985Z" fill="black"/>
<path opacity="0.2" d="M61.8652 309.458L60.631 309.944L85.0602 376.014L86.2944 375.529L61.8652 309.458Z" fill="black"/>
<path d="M80.396 146.231C81.1253 146.231 81.7166 145.621 81.7166 144.869C81.7166 144.117 81.1253 143.507 80.396 143.507C79.6666 143.507 79.0753 144.117 79.0753 144.869C79.0753 145.621 79.6666 146.231 80.396 146.231Z" fill="#D0CDE1"/>
<path d="M69.1707 183.012C69.3117 183.012 69.4491 182.965 69.5626 182.879C69.6761 182.793 69.7598 182.671 69.8013 182.532L81.0266 145.07C81.0524 144.985 81.0616 144.895 81.0537 144.806C81.0458 144.717 81.0209 144.63 80.9805 144.551C80.9401 144.471 80.8849 144.401 80.8181 144.344C80.7514 144.287 80.6743 144.244 80.5914 144.217C80.5085 144.191 80.4213 144.181 80.3349 144.19C80.2485 144.198 80.1645 144.224 80.0878 144.266C80.0111 144.308 79.9431 144.365 79.8878 144.434C79.8324 144.503 79.7908 144.582 79.7653 144.668L68.54 182.13C68.5097 182.232 68.5029 182.34 68.5202 182.445C68.5375 182.55 68.5785 182.649 68.6398 182.735C68.7012 182.821 68.7811 182.891 68.8733 182.939C68.9655 182.987 69.0673 183.012 69.1707 183.012V183.012Z" fill="#D0CDE1"/>
<path d="M82.481 110.921L77.1452 116.158C71.6498 113.305 66.3418 105.619 64.8438 99.3191L71.8448 96.2928C72.3018 102.718 76.7232 106.989 82.481 110.921Z" fill="white"/>
<path d="M83.8114 99.0357C83.7903 99.0357 83.7692 99.0343 83.7482 99.0312L71.3393 97.2026C71.2816 97.1942 71.2262 97.1741 71.1761 97.1436C71.126 97.113 71.0822 97.0726 71.0472 97.0246C71.0123 96.9766 70.9868 96.9219 70.9723 96.8638C70.9578 96.8056 70.9546 96.7451 70.9627 96.6857C70.9709 96.6262 70.9904 96.569 71.02 96.5173C71.0496 96.4656 71.0888 96.4205 71.1354 96.3844C71.1819 96.3483 71.2349 96.3221 71.2912 96.3071C71.3476 96.2922 71.4063 96.2888 71.4639 96.2973L83.8729 98.1258C83.9839 98.1421 84.0848 98.2011 84.1553 98.291C84.2258 98.3808 84.2606 98.4949 84.2528 98.6103C84.245 98.7256 84.1952 98.8336 84.1133 98.9126C84.0314 98.9915 83.9235 99.0355 83.8114 99.0357V99.0357Z" fill="white"/>
<path d="M82.0379 110.922C81.9605 110.922 81.8844 110.901 81.8172 110.861C81.7501 110.821 81.6942 110.764 81.6551 110.695C81.6161 110.626 81.5952 110.548 81.5946 110.468C81.5941 110.388 81.6138 110.31 81.6518 110.24L85.7633 102.69C85.7918 102.638 85.83 102.592 85.8757 102.554C85.9215 102.517 85.9739 102.489 86.03 102.473C86.0862 102.457 86.1448 102.452 86.2027 102.459C86.2606 102.467 86.3165 102.485 86.3673 102.515C86.4181 102.544 86.4628 102.584 86.4987 102.631C86.5347 102.679 86.5612 102.733 86.5768 102.791C86.5925 102.849 86.5968 102.909 86.5897 102.969C86.5826 103.028 86.5642 103.086 86.5354 103.138L82.4239 110.688C82.3855 110.759 82.3294 110.818 82.2616 110.859C82.1937 110.9 82.1165 110.922 82.0379 110.922V110.922Z" fill="white"/>
<path d="M96.4268 107.286C94.6982 106.343 92.6903 106.149 90.8193 105.563C84.1256 103.466 79.6415 95.6607 81.0731 88.5974C81.3376 87.6915 81.4564 86.747 81.4246 85.8014C81.1744 83.7094 79.0993 82.3596 77.1094 81.8803C75.1196 81.401 73.0024 81.4706 71.1005 80.6999C68.164 79.5098 66.2133 76.3969 65.7905 73.1718C65.3676 69.9467 66.2954 66.6574 67.8043 63.7992L68.523 65.9327C69.6192 64.9755 70.4329 63.7202 70.8716 62.3095C71.6884 62.4511 72.4563 62.8067 73.1018 63.3421C73.7473 63.8775 74.2487 64.5749 74.558 65.3675C75.7118 66.0693 75.878 63.1874 77.1523 62.7622C77.686 62.5842 78.2347 62.9224 78.743 63.1669C81.3109 64.4023 84.2943 63.346 87.0489 62.6612C91.8188 61.481 96.791 61.475 101.564 62.6436C104.734 63.4237 107.873 64.7822 110.142 67.1964C112.005 69.1791 113.166 71.7429 114.155 74.3092C116.588 80.6265 118.196 87.4621 117.392 94.2092C116.723 99.7305 114.484 104.924 110.957 109.134C109.12 111.317 103.125 118.936 99.8379 117.637C95.7078 116.005 101.293 109.94 96.4268 107.286Z" fill="#00263B"/>
</svg>
